<?xml version="1.0" standalone="no"?>
<!DOCTYPE svg PUBLIC "-//W3C//DTD SVG 20010904//EN"
 "http://www.w3.org/TR/2001/REC-SVG-20010904/DTD/svg10.dtd">
<svg version="1.0" xmlns="http://www.w3.org/2000/svg"
 width="300.000000pt" height="300.000000pt" viewBox="0 0 300.000000 300.000000"
 preserveAspectRatio="xMidYMid meet">
  <metadata>
    Created by potrace 1.10, written by Peter Selinger 2001-2011
  </metadata>
  <g transform="translate(0.000000,300.000000) scale(0.100000,-0.100000)"
  fill="#000000" stroke="none">
    <path d="M1510 2778 c-33 -12 -35 -16 -38 -64 l-3 -51 57 -2 56 -2 -6 34 c-11
58 14 88 55 66 16 -8 20 -19 17 -52 -3 -41 -2 -42 30 -45 l32 -3 0 50 c0 41
-4 52 -22 62 -32 17 -138 21 -178 7z"/>
    <path d="M1260 2636 c0 -8 99 -11 345 -11 246 0 345 3 345 11 0 8 -99 11 -345
11 -246 0 -345 -3 -345 -11z"/>
    <path d="M1593 2612 l-403 -2 1 -208 c1 -114 4 -252 8 -307 5 -81 7 -46 13
185 6 244 10 287 23 297 12 8 111 10 377 7 199 -3 365 -7 370 -10 5 -3 9 -38
8 -77 -3 -159 -4 -597 -1 -677 1 -47 6 -164 10 -260 l8 -175 2 190 c6 442 3
1039 -5 1040 -5 0 -190 -1 -411 -3z"/>
    <path d="M1509 2527 c-32 -13 -70 -34 -85 -46 -35 -27 -91 -96 -99 -122 -4
-10 -10 -19 -15 -19 -15 0 -27 -60 -29 -144 -2 -72 1 -85 31 -144 41 -79 116
-151 185 -174 62 -22 168 -23 207 -3 15 8 34 15 41 15 16 0 128 100 121 108
-3 2 1 11 9 19 8 7 24 44 35 81 40 126 8 259 -84 354 -57 59 -112 86 -193 93
-58 5 -77 2 -124 -18z m189 -23 c64 -21 139 -87 176 -154 26 -47 29 -63 29
-144 1 -78 -3 -100 -26 -149 -33 -72 -82 -120 -160 -159 -55 -27 -68 -30 -124
-25 -208 20 -333 206 -279 414 20 78 54 131 112 173 83 59 177 74 272 44z"/>
    <path d="M1556 2491 c-11 -4 12 -8 55 -8 49 0 66 2 49 7 -32 10 -80 11 -104 1z"/>
    <path d="M1689 2472 c-3 -8 -27 -13 -69 -14 -61 -1 -127 -19 -159 -43 -37 -28
-103 -96 -98 -101 3 -3 19 9 36 28 130 148 366 111 451 -70 25 -53 28 -140 6
-201 -9 -24 -14 -46 -11 -49 2 -3 9 8 15 24 5 16 14 36 20 46 5 9 8 51 7 95
-3 87 -22 137 -68 180 -15 15 -26 31 -23 35 3 5 2 7 -3 6 -12 -3 -90 49 -95
64 -4 10 -6 10 -9 0z"/>
    <path d="M794 2465 c-12 -46 1 -144 22 -173 12 -16 62 -48 121 -77 56 -27 111
-59 123 -70 29 -26 56 -88 71 -164 9 -49 15 -61 30 -61 13 0 19 7 19 23 0 35
-11 67 -21 61 -8 -4 -12 142 -11 341 l1 60 -9 -45 c-5 -25 -9 -84 -9 -132 l-1
-88 -47 37 c-27 20 -82 52 -123 70 -41 19 -83 42 -93 50 -39 36 -50 85 -32
142 5 18 15 21 58 22 29 0 99 0 157 1 58 1 109 3 114 6 26 14 -38 22 -191 22
l-173 0 -6 -25z"/>
    <path d="M2045 2480 c-3 -5 -5 -11 -3 -11 2 -1 72 -3 156 -4 84 -1 155 -5 159
-8 11 -12 13 -92 3 -117 -13 -30 -88 -81 -145 -98 -22 -6 -64 -32 -92 -58
l-53 -46 -1 59 c-4 199 -12 207 -20 18 -3 -99 -10 -206 -14 -237 -7 -50 -6
-58 9 -58 11 0 16 9 16 29 0 42 34 144 59 179 14 20 58 48 133 85 134 66 152
88 153 182 0 100 10 95 -184 95 -102 0 -172 -4 -176 -10z"/>
    <path d="M1197 1950 c-10 -37 -8 -398 2 -380 12 21 23 328 13 370 -8 33 -8 34
-15 10z"/>
    <path d="M1509 1797 c-85 -32 -154 -96 -191 -177 -9 -19 -21 -47 -28 -62 -8
-17 -11 -56 -8 -110 6 -104 32 -163 102 -233 56 -56 108 -85 168 -93 49 -6 40
-15 -36 -37 -46 -13 -72 -28 -117 -71 -31 -31 -63 -68 -69 -85 -7 -16 -16 -29
-20 -29 -14 0 -30 -79 -30 -152 0 -54 5 -86 20 -116 11 -22 20 -46 20 -52 0
-5 5 -10 10 -10 6 0 10 -6 10 -12 0 -16 70 -91 77 -84 3 3 -16 30 -42 60 -52
61 -64 96 -72 200 -4 59 -1 79 22 138 83 212 349 264 499 98 61 -67 80 -121
80 -220 1 -47 -4 -93 -9 -102 -7 -12 -10 9 -9 70 2 76 -1 93 -23 134 -32 59
-73 101 -122 125 -20 10 -36 24 -34 30 2 6 -1 14 -6 18 -7 3 -8 0 -5 -10 5
-13 -3 -15 -62 -11 -96 6 -172 -19 -218 -72 -6 -7 -18 -21 -27 -30 -34 -35
-61 -106 -65 -166 l-3 -61 9 54 c20 108 80 194 163 232 54 24 156 24 214 1 91
-37 162 -138 164 -230 2 -81 -27 -169 -65 -201 -9 -7 -13 -17 -10 -22 3 -5 0
-8 -7 -7 -6 2 -14 -3 -16 -9 -10 -29 31 -10 71 31 60 63 91 161 82 258 -15
163 -128 291 -279 315 l-41 6 43 13 c84 25 150 64 196 118 25 29 45 58 45 65
0 6 4 11 9 11 24 0 32 199 11 276 -16 55 -14 52 -70 116 -59 67 -127 99 -220
104 -48 3 -88 -1 -111 -9z m227 -44 c50 -27 117 -92 138 -137 35 -74 43 -210
14 -256 -7 -12 -8 -11 -4 5 14 56 3 185 -15 185 -5 0 -9 9 -9 20 0 12 -23 44
-52 73 -29 29 -51 56 -50 60 1 5 -2 6 -8 2 -5 -3 -19 -1 -31 6 -17 9 -19 13
-8 20 9 6 10 9 2 9 -6 0 -15 -4 -18 -10 -3 -5 -21 -10 -38 -10 -27 1 -29 2
-14 11 10 6 25 8 33 5 8 -3 14 -1 14 4 0 6 -6 10 -14 10 -8 0 -23 3 -33 6 -15
5 -16 4 -3 -6 12 -9 9 -10 -15 -6 -21 5 -26 4 -16 -3 11 -7 1 -11 -33 -16 -57
-9 -129 -45 -173 -87 -65 -63 -101 -207 -70 -278 15 -32 16 -33 9 -5 -23 97
11 212 79 269 62 53 109 70 184 70 80 0 137 -24 193 -80 85 -88 99 -238 30
-336 -11 -16 -16 -33 -13 -38 4 -6 1 -9 -6 -8 -7 2 -13 -4 -14 -12 0 -8 -7
-15 -15 -15 -8 0 -16 -4 -18 -10 -6 -17 -76 -46 -99 -42 -13 2 -20 0 -16 -6 9
-15 -116 -2 -162 17 -32 14 -37 19 -25 27 12 8 10 9 -6 4 -16 -4 -31 6 -66 43
-127 135 -114 347 27 475 11 10 43 29 70 43 44 22 60 25 130 21 56 -2 92 -10
121 -24z"/>
    <path d="M1535 1605 c-24 -12 -25 -14 -5 -9 13 4 47 10 75 14 l50 8 -45 0
c-25 1 -58 -5 -75 -13z"/>
    <path d="M1387 1493 c-9 -8 -8 -113 1 -135 4 -10 7 18 7 62 0 44 0 80 -1 80 0
0 -4 -3 -7 -7z"/>
    <path d="M1412 1432 c-2 -47 18 -112 34 -112 2 0 -1 10 -8 23 -7 12 -15 49
-19 82 l-6 60 -1 -53z"/>
    <path d="M1466 1289 c23 -25 71 -52 86 -47 6 2 -8 12 -31 22 -22 11 -41 22
-41 26 0 5 -8 11 -17 14 -14 6 -14 4 3 -15z"/>
    <path d="M1490 1306 c0 -8 81 -46 98 -45 9 0 4 5 -13 11 -16 6 -39 17 -50 24
-19 14 -35 18 -35 10z"/>
    <path d="M1645 1250 c-33 -10 -51 -19 -39 -19 24 -1 84 18 99 30 5 5 7 8 5 8
-3 -1 -32 -9 -65 -19z"/>
    <path d="M2225 1772 c-88 -1 -164 -7 -169 -12 -12 -12 -23 -11 158 -15 76 -2
141 -6 144 -10 21 -21 6 -120 -21 -146 -21 -20 -135 -79 -152 -79 -5 0 -31
-18 -57 -41 -27 -23 -51 -40 -53 -38 -2 2 -6 55 -9 118 -3 63 -8 116 -11 119
-3 3 -5 -71 -6 -164 0 -190 -7 -249 -29 -248 -20 1 -23 -25 -19 -201 6 -245 3
-638 -4 -667 l-7 -27 -137 -3 -136 -3 -21 -28 c-19 -25 -21 -45 -24 -178 l-4
-149 26 0 26 0 0 163 0 162 146 -3 c114 -3 149 -1 155 10 5 7 9 41 9 76 0 46
4 62 14 62 9 0 16 19 20 58 8 75 45 153 87 185 19 14 65 38 104 54 93 38 141
84 150 144 4 25 3 66 -2 90 l-9 44 -164 -4 c-91 -1 -167 -5 -169 -7 -12 -12
19 -15 140 -15 138 -1 180 -9 159 -34 -8 -9 -8 -15 0 -20 14 -9 12 -42 -5 -79
-13 -27 -34 -42 -113 -79 -53 -26 -111 -60 -129 -77 -48 -45 -55 -40 -52 39 2
39 0 73 -4 77 -4 4 -7 -46 -8 -112 0 -65 -4 -139 -8 -164 -13 -80 -23 119 -19
387 3 223 4 243 21 243 12 0 17 8 17 28 0 46 27 132 55 174 22 32 45 48 129
87 113 53 150 88 161 151 7 40 0 107 -13 125 -4 6 -71 9 -167 7z"/>
    <path d="M796 1754 c-12 -30 -6 -126 10 -159 18 -39 63 -70 157 -110 107 -45
147 -102 173 -247 5 -28 11 -38 25 -38 18 0 19 -13 20 -307 1 -312 0 -355 -7
-362 -15 -16 -23 34 -29 174 -6 177 -15 219 -15 76 l0 -93 -40 36 c-22 20 -82
56 -134 81 -57 27 -100 54 -110 71 -20 29 -24 110 -7 127 6 6 70 12 148 14 76
2 145 7 153 11 8 4 -64 9 -160 12 -96 3 -177 4 -180 2 -3 -2 -5 -40 -5 -85 0
-109 10 -122 155 -195 133 -66 148 -85 177 -214 13 -63 20 -78 35 -78 15 0 18
-9 18 -59 0 -97 -11 -91 180 -91 96 0 171 4 175 9 11 18 -70 31 -192 31 -91 0
-123 3 -124 13 -1 6 -4 26 -7 42 -2 17 -6 217 -8 445 -3 491 -4 493 -26 429
-20 -58 -29 -13 -31 159 -1 98 -6 167 -11 162 -5 -5 -8 -49 -8 -100 l1 -91
-41 35 c-22 19 -57 42 -77 51 -20 9 -43 20 -51 25 -8 6 -26 15 -39 20 -49 21
-81 52 -90 87 -8 30 -7 40 5 54 13 15 13 17 -2 23 -14 5 -15 9 -5 19 8 8 48
11 129 9 124 -3 192 4 192 19 0 5 -76 9 -174 9 -149 0 -175 -2 -180 -16z"/>
    <path d="M1575 1040 c4 -6 15 -8 25 -5 11 3 28 2 38 -4 10 -5 24 -6 31 -2 8 6
2 10 -19 15 -49 9 -82 7 -75 -4z"/>
    <path d="M1556 932 c-2 -4 14 -6 37 -4 68 5 76 10 20 11 -28 0 -54 -2 -57 -7z"/>
    <path d="M1450 830 c-18 -23 -30 -43 -27 -46 3 -3 19 15 37 40 38 57 33 60
-10 6z"/>
    <path d="M1411 707 c-1 -38 22 -101 41 -113 5 -4 2 9 -8 27 -10 19 -21 54 -25
79 l-6 45 -2 -38z"/>
    <path d="M1381 673 c-2 -34 58 -126 93 -145 12 -6 4 7 -18 30 -22 22 -48 60
-57 84 -10 24 -18 38 -18 31z"/>
    <path d="M1553 528 c7 -4 30 -8 52 -8 22 0 45 4 52 8 6 4 -17 7 -52 7 -35 0
-58 -3 -52 -7z"/>
    <path d="M1702 518 c-6 -6 -44 -15 -84 -19 l-73 -7 72 2 c54 1 78 6 90 19 10
9 15 17 12 17 -3 0 -10 -5 -17 -12z"/>
    <path d="M1436 461 c32 -34 208 -66 240 -44 7 5 -24 9 -68 11 -45 2 -92 9
-107 16 -41 21 -78 31 -65 17z"/>
    <path d="M1725 462 c2 -3 -3 -11 -13 -19 -15 -13 -14 -14 13 -8 17 3 36 12 44
20 12 12 9 14 -18 13 -17 -1 -29 -3 -26 -6z"/>
    <path d="M1480 155 c0 -131 2 -155 15 -155 13 0 15 22 15 139 0 77 -3 146 -6
155 -17 44 -24 2 -24 -139z"/>
    <path d="M1533 148 c2 -127 4 -143 20 -146 15 -3 17 6 19 60 0 35 2 79 3 98 1
19 -4 48 -12 63 -8 15 -11 32 -8 37 3 6 1 10 -5 10 -6 0 -8 5 -5 10 3 6 2 10
-4 10 -6 0 -9 -52 -8 -142z"/>
  </g>
</svg>
